<mxfile host="Electron" agent="Mozilla/5.0 (Windows NT 10.0; Win64; x64) AppleWebKit/537.36 (KHTML, like Gecko) draw.io/24.7.17 Chrome/128.0.6613.36 Electron/32.0.1 Safari/537.36" version="24.7.17">
  <diagram name="Page-1" id="2YBvvXClWsGukQMizWep">
    <mxGraphModel dx="989" dy="582" grid="1" gridSize="10" guides="1" tooltips="1" connect="1" arrows="1" fold="1" page="1" pageScale="1" pageWidth="850" pageHeight="1100" math="0" shadow="0">
      <root>
        <mxCell id="0" />
        <mxCell id="1" parent="0" />
        <mxCell id="fYW5cHbBiaZkCb3SumjH-7" value="&lt;span style=&quot;font-size: 24px;&quot;&gt;1 bit PU&lt;/span&gt;" style="swimlane;fontStyle=0;childLayout=stackLayout;horizontal=1;startSize=30;horizontalStack=0;resizeParent=1;resizeParentMax=0;resizeLast=0;collapsible=1;marginBottom=0;whiteSpace=wrap;html=1;" vertex="1" parent="1">
          <mxGeometry x="240" y="150" width="140" height="270" as="geometry" />
        </mxCell>
        <mxCell id="fYW5cHbBiaZkCb3SumjH-11" value="&lt;div style=&quot;&quot;&gt;write_o_s&lt;/div&gt;&lt;div style=&quot;&quot;&gt;&lt;br&gt;&lt;/div&gt;&lt;div style=&quot;&quot;&gt;data_o_s&lt;/div&gt;&lt;div style=&quot;&quot;&gt;&lt;br&gt;&lt;/div&gt;&lt;div style=&quot;&quot;&gt;&lt;br&gt;&lt;/div&gt;&lt;div style=&quot;&quot;&gt;&lt;br&gt;&lt;/div&gt;&lt;div style=&quot;&quot;&gt;&lt;br&gt;&lt;/div&gt;&lt;div style=&quot;&quot;&gt;&lt;br&gt;&lt;/div&gt;&lt;div style=&quot;&quot;&gt;&lt;br&gt;&lt;/div&gt;&lt;div style=&quot;&quot;&gt;&lt;br&gt;&lt;/div&gt;&lt;div style=&quot;&quot;&gt;&lt;br&gt;&lt;/div&gt;&lt;div style=&quot;&quot;&gt;&lt;br&gt;&lt;/div&gt;&lt;div style=&quot;&quot;&gt;&lt;br&gt;&lt;/div&gt;&lt;div style=&quot;&quot;&gt;&lt;br&gt;&lt;/div&gt;&lt;div style=&quot;&quot;&gt;is_empty_i_s&lt;/div&gt;" style="rounded=0;whiteSpace=wrap;html=1;align=right;" vertex="1" parent="fYW5cHbBiaZkCb3SumjH-7">
          <mxGeometry y="30" width="140" height="240" as="geometry" />
        </mxCell>
        <mxCell id="fYW5cHbBiaZkCb3SumjH-40" style="edgeStyle=orthogonalEdgeStyle;rounded=0;orthogonalLoop=1;jettySize=auto;html=1;exitX=0;exitY=0.75;exitDx=0;exitDy=0;entryX=0;entryY=0.75;entryDx=0;entryDy=0;" edge="1" parent="1" target="fYW5cHbBiaZkCb3SumjH-13">
          <mxGeometry relative="1" as="geometry">
            <mxPoint x="470" y="254.88888888888886" as="sourcePoint" />
          </mxGeometry>
        </mxCell>
        <mxCell id="fYW5cHbBiaZkCb3SumjH-41" value="clk_s" style="edgeLabel;html=1;align=center;verticalAlign=middle;resizable=0;points=[];" vertex="1" connectable="0" parent="fYW5cHbBiaZkCb3SumjH-40">
          <mxGeometry x="-0.4144" relative="1" as="geometry">
            <mxPoint x="-22" as="offset" />
          </mxGeometry>
        </mxCell>
        <mxCell id="fYW5cHbBiaZkCb3SumjH-13" value="" style="swimlane;startSize=0;strokeWidth=2;" vertex="1" parent="1">
          <mxGeometry x="490" y="180" width="60" height="100" as="geometry" />
        </mxCell>
        <mxCell id="fYW5cHbBiaZkCb3SumjH-12" value="&lt;div style=&quot;&quot;&gt;&lt;span style=&quot;background-color: initial;&quot;&gt;Q&lt;/span&gt;&lt;br&gt;&lt;/div&gt;&lt;div style=&quot;&quot;&gt;&lt;span style=&quot;background-color: initial;&quot;&gt;&lt;br&gt;&lt;/span&gt;&lt;/div&gt;&lt;div style=&quot;&quot;&gt;&lt;span style=&quot;background-color: initial;&quot;&gt;&lt;br&gt;&lt;/span&gt;&lt;/div&gt;&lt;div style=&quot;&quot;&gt;&lt;span style=&quot;background-color: initial;&quot;&gt;&lt;br&gt;&lt;/span&gt;&lt;/div&gt;&lt;div style=&quot;&quot;&gt;&lt;span style=&quot;background-color: initial;&quot;&gt;&lt;br&gt;&lt;/span&gt;&lt;/div&gt;" style="rounded=0;whiteSpace=wrap;html=1;align=right;strokeColor=none;fillColor=#f5f5f5;fontColor=#333333;" vertex="1" parent="fYW5cHbBiaZkCb3SumjH-13">
          <mxGeometry x="31" width="29" height="100" as="geometry" />
        </mxCell>
        <mxCell id="fYW5cHbBiaZkCb3SumjH-14" value="&lt;div style=&quot;&quot;&gt;CE&lt;br&gt;&lt;br&gt;D&lt;br&gt;&lt;br&gt;&lt;br&gt;&lt;font style=&quot;font-size: 8px;&quot;&gt;nReset&lt;/font&gt;&lt;/div&gt;" style="rounded=0;whiteSpace=wrap;html=1;align=left;strokeColor=none;fillColor=#f5f5f5;fontColor=#333333;" vertex="1" parent="fYW5cHbBiaZkCb3SumjH-13">
          <mxGeometry x="1" width="30" height="100" as="geometry" />
        </mxCell>
        <mxCell id="fYW5cHbBiaZkCb3SumjH-15" value="" style="triangle;whiteSpace=wrap;html=1;" vertex="1" parent="fYW5cHbBiaZkCb3SumjH-13">
          <mxGeometry x="1" y="70" width="10" height="10" as="geometry" />
        </mxCell>
        <mxCell id="fYW5cHbBiaZkCb3SumjH-33" style="edgeStyle=orthogonalEdgeStyle;rounded=0;orthogonalLoop=1;jettySize=auto;html=1;exitX=0;exitY=0.75;exitDx=0;exitDy=0;entryX=0;entryY=0.75;entryDx=0;entryDy=0;" edge="1" parent="1" target="fYW5cHbBiaZkCb3SumjH-16">
          <mxGeometry relative="1" as="geometry">
            <mxPoint x="470" y="415.1428571428571" as="sourcePoint" />
          </mxGeometry>
        </mxCell>
        <mxCell id="fYW5cHbBiaZkCb3SumjH-35" value="clk_s" style="edgeLabel;html=1;align=center;verticalAlign=middle;resizable=0;points=[];" vertex="1" connectable="0" parent="fYW5cHbBiaZkCb3SumjH-33">
          <mxGeometry x="-0.4422" y="-1" relative="1" as="geometry">
            <mxPoint x="-26" y="-1" as="offset" />
          </mxGeometry>
        </mxCell>
        <mxCell id="fYW5cHbBiaZkCb3SumjH-16" value="" style="swimlane;startSize=0;strokeWidth=2;" vertex="1" parent="1">
          <mxGeometry x="490" y="340" width="60" height="100" as="geometry" />
        </mxCell>
        <mxCell id="fYW5cHbBiaZkCb3SumjH-17" value="&lt;div style=&quot;&quot;&gt;&lt;span style=&quot;background-color: initial;&quot;&gt;Q&lt;/span&gt;&lt;br&gt;&lt;/div&gt;&lt;div style=&quot;&quot;&gt;&lt;span style=&quot;background-color: initial;&quot;&gt;&lt;br&gt;&lt;/span&gt;&lt;/div&gt;&lt;div style=&quot;&quot;&gt;&lt;span style=&quot;background-color: initial;&quot;&gt;&lt;br&gt;&lt;/span&gt;&lt;/div&gt;&lt;div style=&quot;&quot;&gt;&lt;span style=&quot;background-color: initial;&quot;&gt;&lt;br&gt;&lt;/span&gt;&lt;/div&gt;&lt;div style=&quot;&quot;&gt;&lt;span style=&quot;background-color: initial;&quot;&gt;&lt;br&gt;&lt;/span&gt;&lt;/div&gt;" style="rounded=0;whiteSpace=wrap;html=1;align=right;strokeColor=none;fillColor=#f5f5f5;fontColor=#333333;" vertex="1" parent="fYW5cHbBiaZkCb3SumjH-16">
          <mxGeometry x="31" width="29" height="100" as="geometry" />
        </mxCell>
        <mxCell id="fYW5cHbBiaZkCb3SumjH-18" value="&lt;div style=&quot;&quot;&gt;S&lt;/div&gt;&lt;div style=&quot;&quot;&gt;&lt;br&gt;R&lt;br&gt;&lt;br&gt;.&lt;/div&gt;" style="rounded=0;whiteSpace=wrap;html=1;align=left;strokeColor=none;fillColor=#f5f5f5;fontColor=#333333;" vertex="1" parent="fYW5cHbBiaZkCb3SumjH-16">
          <mxGeometry x="1" width="30" height="100" as="geometry" />
        </mxCell>
        <mxCell id="fYW5cHbBiaZkCb3SumjH-19" value="" style="triangle;whiteSpace=wrap;html=1;" vertex="1" parent="fYW5cHbBiaZkCb3SumjH-16">
          <mxGeometry x="1" y="70" width="10" height="10" as="geometry" />
        </mxCell>
        <mxCell id="fYW5cHbBiaZkCb3SumjH-22" value="" style="group" vertex="1" connectable="0" parent="1">
          <mxGeometry x="510" y="300" width="30" height="20" as="geometry" />
        </mxCell>
        <mxCell id="fYW5cHbBiaZkCb3SumjH-20" value="" style="triangle;whiteSpace=wrap;html=1;direction=west;" vertex="1" parent="fYW5cHbBiaZkCb3SumjH-22">
          <mxGeometry x="10" width="20" height="20" as="geometry" />
        </mxCell>
        <mxCell id="fYW5cHbBiaZkCb3SumjH-21" value="" style="ellipse;whiteSpace=wrap;html=1;aspect=fixed;" vertex="1" parent="fYW5cHbBiaZkCb3SumjH-22">
          <mxGeometry y="5" width="10" height="10" as="geometry" />
        </mxCell>
        <mxCell id="fYW5cHbBiaZkCb3SumjH-23" style="edgeStyle=orthogonalEdgeStyle;rounded=0;orthogonalLoop=1;jettySize=auto;html=1;entryX=1.004;entryY=0.932;entryDx=0;entryDy=0;entryPerimeter=0;" edge="1" parent="1" source="fYW5cHbBiaZkCb3SumjH-21" target="fYW5cHbBiaZkCb3SumjH-11">
          <mxGeometry relative="1" as="geometry">
            <mxPoint x="420" y="330" as="targetPoint" />
            <Array as="points">
              <mxPoint x="410" y="310" />
              <mxPoint x="410" y="404" />
            </Array>
          </mxGeometry>
        </mxCell>
        <mxCell id="fYW5cHbBiaZkCb3SumjH-25" value="" style="endArrow=classic;html=1;rounded=0;entryX=0;entryY=0.5;entryDx=0;entryDy=0;exitX=1.005;exitY=0.209;exitDx=0;exitDy=0;exitPerimeter=0;" edge="1" parent="1" source="fYW5cHbBiaZkCb3SumjH-11" target="fYW5cHbBiaZkCb3SumjH-13">
          <mxGeometry width="50" height="50" relative="1" as="geometry">
            <mxPoint x="410" y="280" as="sourcePoint" />
            <mxPoint x="460" y="230" as="targetPoint" />
          </mxGeometry>
        </mxCell>
        <mxCell id="fYW5cHbBiaZkCb3SumjH-26" value="&lt;span style=&quot;font-size: 24px;&quot;&gt;8 bit PU&lt;/span&gt;" style="swimlane;fontStyle=0;childLayout=stackLayout;horizontal=1;startSize=30;horizontalStack=0;resizeParent=1;resizeParentMax=0;resizeLast=0;collapsible=1;marginBottom=0;whiteSpace=wrap;html=1;" vertex="1" parent="1">
          <mxGeometry x="660" y="150" width="140" height="270" as="geometry" />
        </mxCell>
        <mxCell id="fYW5cHbBiaZkCb3SumjH-27" value="&lt;div style=&quot;&quot;&gt;data_i_s&lt;/div&gt;&lt;div style=&quot;&quot;&gt;&lt;br&gt;&lt;/div&gt;&lt;div style=&quot;&quot;&gt;&lt;br&gt;&lt;/div&gt;&lt;div style=&quot;&quot;&gt;&lt;br&gt;&lt;/div&gt;&lt;div style=&quot;&quot;&gt;valid_i_s&lt;/div&gt;&lt;div style=&quot;&quot;&gt;&lt;br&gt;&lt;/div&gt;&lt;div style=&quot;&quot;&gt;&lt;br&gt;&lt;/div&gt;&lt;div style=&quot;&quot;&gt;&lt;br&gt;&lt;/div&gt;&lt;div style=&quot;&quot;&gt;ready_o_s&lt;/div&gt;" style="rounded=0;whiteSpace=wrap;html=1;align=left;" vertex="1" parent="fYW5cHbBiaZkCb3SumjH-26">
          <mxGeometry y="30" width="140" height="240" as="geometry" />
        </mxCell>
        <mxCell id="fYW5cHbBiaZkCb3SumjH-28" style="edgeStyle=orthogonalEdgeStyle;rounded=0;orthogonalLoop=1;jettySize=auto;html=1;exitX=1;exitY=0.25;exitDx=0;exitDy=0;entryX=0;entryY=0.25;entryDx=0;entryDy=0;" edge="1" parent="1" source="fYW5cHbBiaZkCb3SumjH-12" target="fYW5cHbBiaZkCb3SumjH-27">
          <mxGeometry relative="1" as="geometry" />
        </mxCell>
        <mxCell id="fYW5cHbBiaZkCb3SumjH-30" value="" style="endArrow=classic;html=1;rounded=0;entryX=0;entryY=0.5;entryDx=0;entryDy=0;" edge="1" parent="1" source="fYW5cHbBiaZkCb3SumjH-31" target="fYW5cHbBiaZkCb3SumjH-20">
          <mxGeometry width="50" height="50" relative="1" as="geometry">
            <mxPoint x="610" y="360" as="sourcePoint" />
            <mxPoint x="650" y="350" as="targetPoint" />
            <Array as="points" />
          </mxGeometry>
        </mxCell>
        <mxCell id="fYW5cHbBiaZkCb3SumjH-42" style="edgeStyle=orthogonalEdgeStyle;rounded=0;orthogonalLoop=1;jettySize=auto;html=1;exitX=0;exitY=0.75;exitDx=0;exitDy=0;entryX=0;entryY=0.75;entryDx=0;entryDy=0;" edge="1" parent="1">
          <mxGeometry relative="1" as="geometry">
            <mxPoint x="489" y="268" as="targetPoint" />
            <mxPoint x="469" y="267.88888888888886" as="sourcePoint" />
          </mxGeometry>
        </mxCell>
        <mxCell id="fYW5cHbBiaZkCb3SumjH-43" value="rstn_s" style="edgeLabel;html=1;align=center;verticalAlign=middle;resizable=0;points=[];" vertex="1" connectable="0" parent="fYW5cHbBiaZkCb3SumjH-42">
          <mxGeometry x="-0.4144" relative="1" as="geometry">
            <mxPoint x="-22" as="offset" />
          </mxGeometry>
        </mxCell>
        <mxCell id="fYW5cHbBiaZkCb3SumjH-47" value="" style="edgeStyle=orthogonalEdgeStyle;rounded=0;orthogonalLoop=1;jettySize=auto;html=1;" edge="1" parent="1" source="fYW5cHbBiaZkCb3SumjH-31" target="fYW5cHbBiaZkCb3SumjH-27">
          <mxGeometry relative="1" as="geometry" />
        </mxCell>
        <mxCell id="fYW5cHbBiaZkCb3SumjH-31" value="" style="ellipse;whiteSpace=wrap;html=1;aspect=fixed;fillColor=#000000;" vertex="1" parent="1">
          <mxGeometry x="605" y="305" width="10" height="10" as="geometry" />
        </mxCell>
        <mxCell id="fYW5cHbBiaZkCb3SumjH-46" style="edgeStyle=orthogonalEdgeStyle;rounded=0;orthogonalLoop=1;jettySize=auto;html=1;exitX=1;exitY=0.25;exitDx=0;exitDy=0;entryX=0.5;entryY=1;entryDx=0;entryDy=0;" edge="1" parent="1" source="fYW5cHbBiaZkCb3SumjH-17" target="fYW5cHbBiaZkCb3SumjH-31">
          <mxGeometry relative="1" as="geometry" />
        </mxCell>
        <mxCell id="fYW5cHbBiaZkCb3SumjH-48" style="edgeStyle=orthogonalEdgeStyle;rounded=0;orthogonalLoop=1;jettySize=auto;html=1;exitX=0;exitY=0.75;exitDx=0;exitDy=0;entryX=0;entryY=0.5;entryDx=0;entryDy=0;" edge="1" parent="1" source="fYW5cHbBiaZkCb3SumjH-27" target="fYW5cHbBiaZkCb3SumjH-16">
          <mxGeometry relative="1" as="geometry">
            <mxPoint x="430" y="390" as="targetPoint" />
            <Array as="points">
              <mxPoint x="630" y="360" />
              <mxPoint x="630" y="480" />
              <mxPoint x="430" y="480" />
              <mxPoint x="430" y="390" />
            </Array>
          </mxGeometry>
        </mxCell>
        <mxCell id="fYW5cHbBiaZkCb3SumjH-54" style="edgeStyle=orthogonalEdgeStyle;rounded=0;orthogonalLoop=1;jettySize=auto;html=1;exitX=0.5;exitY=1;exitDx=0;exitDy=0;entryX=0;entryY=0.25;entryDx=0;entryDy=0;" edge="1" parent="1" source="fYW5cHbBiaZkCb3SumjH-49" target="fYW5cHbBiaZkCb3SumjH-16">
          <mxGeometry relative="1" as="geometry" />
        </mxCell>
        <mxCell id="fYW5cHbBiaZkCb3SumjH-49" value="" style="ellipse;whiteSpace=wrap;html=1;aspect=fixed;fillColor=#000000;" vertex="1" parent="1">
          <mxGeometry x="416" y="195" width="10" height="10" as="geometry" />
        </mxCell>
        <mxCell id="fYW5cHbBiaZkCb3SumjH-52" style="edgeStyle=orthogonalEdgeStyle;rounded=0;orthogonalLoop=1;jettySize=auto;html=1;exitX=1.01;exitY=0.083;exitDx=0;exitDy=0;exitPerimeter=0;" edge="1" parent="1" source="fYW5cHbBiaZkCb3SumjH-11" target="fYW5cHbBiaZkCb3SumjH-49">
          <mxGeometry relative="1" as="geometry" />
        </mxCell>
        <mxCell id="fYW5cHbBiaZkCb3SumjH-53" style="edgeStyle=orthogonalEdgeStyle;rounded=0;orthogonalLoop=1;jettySize=auto;html=1;exitX=1;exitY=0.5;exitDx=0;exitDy=0;entryX=-0.027;entryY=0.135;entryDx=0;entryDy=0;entryPerimeter=0;" edge="1" parent="1" source="fYW5cHbBiaZkCb3SumjH-49" target="fYW5cHbBiaZkCb3SumjH-13">
          <mxGeometry relative="1" as="geometry" />
        </mxCell>
      </root>
    </mxGraphModel>
  </diagram>
</mxfile>
